<?xml version="1.0" standalone="no"?><!DOCTYPE svg PUBLIC "-//W3C//DTD SVG 1.1//EN"
        "http://www.w3.org/Graphics/SVG/1.1/DTD/svg11.dtd">
<svg t="1614757604408" class="icon" viewBox="0 0 1024 1024" version="1.1" xmlns="http://www.w3.org/2000/svg" p-id="1140"
     xmlns:xlink="http://www.w3.org/1999/xlink" width="200" height="200">
    <defs>
        <style type="text/css"></style>
    </defs>
    <path d="M774.4512 942.2848H254.976c-39.2192 0-75.776-15.616-102.8608-43.9808-27.0848-28.3648-41.0624-65.5872-39.2704-104.7552L138.0352 243.2c3.4816-76.1344 65.8944-135.7824 142.1312-135.7824h469.1456c76.2368 0 138.6496 59.648 142.1312 135.7824 0.6656 14.1312-10.2912 26.112-24.4224 26.7264-14.2848 0.4096-26.112-10.2912-26.7264-24.4224-2.2016-48.7424-42.1888-86.8864-90.9824-86.8864H280.1664c-48.7936 0-88.7296 38.1952-90.9824 86.8864l-25.1904 550.2976c-1.1264 25.088 7.7824 48.896 25.1392 67.072 17.3568 18.176 40.7552 28.16 65.8432 28.16h519.4752c25.1392 0 48.4864-9.984 65.8432-28.16 17.3568-18.176 26.2656-41.984 25.1392-67.072l-15.104-349.7984a25.58976 25.58976 0 0 1 24.4736-26.6752c13.8752-0.5632 26.0608 10.3424 26.6752 24.4736l15.104 349.7472c1.792 39.1168-12.1344 76.3392-39.2704 104.704-27.0848 28.3648-63.5904 44.032-102.8608 44.032z"
          fill="#1ae6e6" p-id="1141"></path>
    <path d="M870.7072 387.2256c-13.312 0-24.576-10.2912-25.4976-23.808l-2.56-36.7104a25.6512 25.6512 0 0 1 23.7568-27.3408c14.08-1.024 26.3168 9.6256 27.3408 23.7568l2.56 36.7104a25.6512 25.6512 0 0 1-23.7568 27.3408c-0.6144 0.0512-1.2288 0.0512-1.8432 0.0512z"
          fill="#1ae6e6" p-id="1142"></path>
    <path d="M521.8816 515.584h-11.3152c-117.1968 0-212.5824-95.3344-212.5824-212.5824V296.96c0-14.1312 11.4688-25.6 25.6-25.6s25.6 11.4688 25.6 25.6v6.0416c0 88.9856 72.3968 161.3824 161.3824 161.3824h11.3152c88.9856 0 161.3312-72.3968 161.3312-161.3824 0-14.1312 11.4688-25.6 25.6-25.6s25.6 11.4688 25.6 25.6c0.0512 117.1968-95.3344 212.5824-212.5312 212.5824z"
          fill="#1ae6e6" p-id="1143"></path>
</svg>